# xmcd CD database file
#
# Track frame offsets:
#	150
#	18470
#	36807
#	55255
#	74145
#	107342
#	122170
#	153170
#	171795
#	189007
#
# Disc length: 2939 seconds
#
# Revision: 0
# Processed by: cddbd v1.5PL3 Copyright (c) Steve Scherf et al.
# Submitted via: CDex 1.50beta8
#
DISCID=7c0b790a
DTITLE=人間椅子 - 桜の森の満開の下
DYEAR=1991
DGENRE=Pop
TTITLE0=爆弾行進曲
TTITLE1=遺言状放送
TTITLE2=心の火事
TTITLE3=憂鬱時代
TTITLE4=夜叉ヶ池
TTITLE5=東京ボンデージ
TTITLE6=盗人賛歌
TTITLE7=相撲の唄
TTITLE8=甲状腺上のマリア
TTITLE9=太陽黒点
EXTD=YEAR: 1991
EXTT0=
EXTT1=
EXTT2=
EXTT3=
EXTT4=
EXTT5=
EXTT6=
EXTT7=
EXTT8=
EXTT9=
PLAYORDER=
